<svg
            width="42"
            height="42"
            viewBox="0 0 85.184174 73.916153"
            version="1.1"
            xmlns="http://www.w3.org/2000/svg"
          >
            <defs id="defs1">
              <linearGradient id="swatch35">
                <stop
                  className="stop-color:#fe5d7e;stop-opacity:1;"
                  offset="0"
                  id="stop35"
                />
              </linearGradient>
            </defs>
            <g id="g65" transform="translate(-1.9849544,-2.8613581)">
              <g id="layer1">
                <path
                  className="display:inline;fill:#000000;fill-opacity:1;fill-rule:nonzero;stroke-width:0.265;stroke-dasharray:none;paint-order:stroke fill markers"
                  d="M 44.754325,2.8613581 57.100071,24.579333 49.221036,38.295156 42.174199,33.934562 47.613223,23.97783 44.713284,18.851577 33.874817,37.973886 45.553982,44.814069 29.729376,72.136684 C 18.465095,73.084185 10.140332,74.863278 1.9849544,76.777509 L 18.404023,48.142854 25.542895,52.289755 18.157789,64.652498 24.40351,64.421805 33.733243,48.226392 22.004541,41.66644 Z"
                  id="path38"
                />
                <path
                  className="display:inline;fill:#000000;fill-opacity:1;stroke-width:0.264583"
                  d="M 60.340443,30.280591 87.16913,76.692973 67.816128,73.175564 72.019608,65.959591 68.79694,60.775301 62.112412,72.456955 52.683605,71.739375 63.93392,52.073603 60.818829,46.708155 46.518501,71.805914 c -4.98104,-0.09624 -5.008233,-0.09341 -10.336042,0.157113 z"
                  id="path40"
                />
              </g>
            </g>
          </svg>